<svg xmlns="http://www.w3.org/2000/svg" xmlns:xlink="http://www.w3.org/1999/xlink" viewBox="0 0 395.67 395.67"><defs><style>.cls-1{fill:url(#linear-gradient);}.cls-2{fill:url(#linear-gradient-2);}.cls-3{fill:#fff;}</style><linearGradient id="linear-gradient" x1="195.21" y1="-19.8" x2="197.77" y2="192.16" gradientUnits="userSpaceOnUse"><stop offset="0" stop-color="#262262"/><stop offset="0.46" stop-color="#462877"/><stop offset="0.78" stop-color="#7d226b"/><stop offset="1" stop-color="#9e1f63"/></linearGradient><linearGradient id="linear-gradient-2" x1="197.83" y1="124.09" x2="197.83" y2="335.64" gradientUnits="userSpaceOnUse"><stop offset="0" stop-color="#f7941d"/><stop offset="0.05" stop-color="#f68927"/><stop offset="0.23" stop-color="#f36745"/><stop offset="0.42" stop-color="#f14c5d"/><stop offset="0.6" stop-color="#ef396e"/><stop offset="0.8" stop-color="#ee2e78"/><stop offset="1" stop-color="#ee2a7b"/></linearGradient></defs><title>Asset 1</title><g id="Layer_2" data-name="Layer 2"><g id="Layer_1-2" data-name="Layer 1"><circle class="cls-1" cx="197.83" cy="197.83" r="197.83"/><circle class="cls-2" cx="197.83" cy="197.83" r="81.8"/><circle class="cls-3" cx="197.83" cy="197.83" r="15.62"/><path class="cls-3" d="M53.92,197.35a15,15,0,0,1-1,5.57,12.47,12.47,0,0,1-7.25,7.21,15.6,15.6,0,0,1-5.71,1H29.42V183.55H40a15.39,15.39,0,0,1,5.71,1,13,13,0,0,1,4.41,2.85,12.67,12.67,0,0,1,2.84,4.36A15,15,0,0,1,53.92,197.35Zm-5.25,0a12.63,12.63,0,0,0-.61-4.08,8.65,8.65,0,0,0-1.73-3.05,7.72,7.72,0,0,0-2.74-1.92,9.56,9.56,0,0,0-3.64-.66H34.59v19.42H40a9.37,9.37,0,0,0,3.64-.67,7.48,7.48,0,0,0,2.74-1.92,8.65,8.65,0,0,0,1.73-3.05A12.57,12.57,0,0,0,48.67,197.35Z"/><path class="cls-3" d="M80.59,211.14H75.44V183.55h5.15Z"/><path class="cls-3" d="M118.44,188.57a1.41,1.41,0,0,1-.48.59,1.18,1.18,0,0,1-.66.17,1.66,1.66,0,0,1-.86-.29c-.32-.2-.69-.42-1.12-.66a9.89,9.89,0,0,0-1.52-.66,6.3,6.3,0,0,0-2-.29,6.11,6.11,0,0,0-1.86.25,4.08,4.08,0,0,0-1.34.72,2.84,2.84,0,0,0-.81,1.1,3.53,3.53,0,0,0-.27,1.4,2.44,2.44,0,0,0,.55,1.62,4.6,4.6,0,0,0,1.44,1.11,14,14,0,0,0,2,.82c.76.24,1.54.5,2.34.77a23.4,23.4,0,0,1,2.34.95,8.23,8.23,0,0,1,2,1.38,6.43,6.43,0,0,1,1.44,2,7.08,7.08,0,0,1,.54,2.92,9.46,9.46,0,0,1-.64,3.5,8,8,0,0,1-1.87,2.84,8.72,8.72,0,0,1-3,1.91,11.2,11.2,0,0,1-4.07.7,13.38,13.38,0,0,1-5-1,12.36,12.36,0,0,1-2.2-1.14,10.27,10.27,0,0,1-1.82-1.49l1.49-2.46a2,2,0,0,1,.5-.45,1.26,1.26,0,0,1,.66-.18,1.82,1.82,0,0,1,1,.39c.37.26.81.55,1.31.87a9.73,9.73,0,0,0,1.77.87,6.9,6.9,0,0,0,2.46.39,5,5,0,0,0,3.39-1,3.74,3.74,0,0,0,1.2-3,2.79,2.79,0,0,0-.54-1.77,4.43,4.43,0,0,0-1.44-1.16,11.27,11.27,0,0,0-2-.79c-.77-.21-1.54-.45-2.33-.7a20.86,20.86,0,0,1-2.33-.92,7.52,7.52,0,0,1-2-1.39,6.25,6.25,0,0,1-1.44-2.15,8.25,8.25,0,0,1-.54-3.18,7.62,7.62,0,0,1,2.35-5.47,8.75,8.75,0,0,1,2.84-1.78,10.39,10.39,0,0,1,3.83-.66,12.8,12.8,0,0,1,4.5.76,10,10,0,0,1,3.51,2.14Z"/><path class="cls-3" d="M160,204.64a1,1,0,0,1,.73.32l2,2.19a11.14,11.14,0,0,1-4.13,3.19,14.23,14.23,0,0,1-5.89,1.11,13.9,13.9,0,0,1-5.52-1,12.25,12.25,0,0,1-4.19-2.92,12.84,12.84,0,0,1-2.66-4.47,16.64,16.64,0,0,1-.93-5.66,15.42,15.42,0,0,1,1-5.7,12.86,12.86,0,0,1,7.38-7.36,15.21,15.21,0,0,1,5.75-1,13.65,13.65,0,0,1,5.37,1,12.63,12.63,0,0,1,3.94,2.6l-1.71,2.39a1.69,1.69,0,0,1-.4.4,1.12,1.12,0,0,1-.65.17,1.47,1.47,0,0,1-.9-.34,11,11,0,0,0-1.17-.75,10,10,0,0,0-1.78-.74,10.39,10.39,0,0,0-6.31.33,8,8,0,0,0-2.81,1.94,9,9,0,0,0-1.83,3.06,11.76,11.76,0,0,0-.66,4.06,12.07,12.07,0,0,0,.66,4.14,9.13,9.13,0,0,0,1.78,3,7.6,7.6,0,0,0,2.66,1.9,8.15,8.15,0,0,0,3.28.66,13.71,13.71,0,0,0,1.9-.12,7.42,7.42,0,0,0,1.56-.36,7,7,0,0,0,1.35-.64,8.31,8.31,0,0,0,1.27-1,1.71,1.71,0,0,1,.4-.28A1,1,0,0,1,160,204.64Z"/><path class="cls-3" d="M229.2,183.55h4.14a1.71,1.71,0,0,1,1.09.33,1.91,1.91,0,0,1,.63.84l6.48,16.82a19,19,0,0,1,.62,1.81q.3,1,.57,2.07a22.62,22.62,0,0,1,1.09-3.88l6.46-16.82a2.09,2.09,0,0,1,.61-.81,1.68,1.68,0,0,1,1.09-.36h4.14L245,211.14h-4.64Z"/><path class="cls-3" d="M293.27,183.55v4.09H281v7.65h9.63v4H281V207h12.23v4.1h-17.4V183.55Z"/><path class="cls-3" d="M319.88,200.36v10.78h-5.13V183.55h8.42a17.84,17.84,0,0,1,4.83.58,9.27,9.27,0,0,1,3.3,1.64,6.24,6.24,0,0,1,1.89,2.51,8.34,8.34,0,0,1,.6,3.21,8.1,8.1,0,0,1-.41,2.63,7.33,7.33,0,0,1-1.18,2.25,7.76,7.76,0,0,1-1.91,1.78,10.24,10.24,0,0,1-2.58,1.22,5.24,5.24,0,0,1,1.68,1.58l6.9,10.19h-4.61a2.24,2.24,0,0,1-1.14-.27,2.2,2.2,0,0,1-.79-.76l-5.8-8.83a2.1,2.1,0,0,0-.72-.71,2.48,2.48,0,0,0-1.15-.21Zm0-3.68h3.21a8,8,0,0,0,2.53-.36,4.88,4.88,0,0,0,1.77-1,4.05,4.05,0,0,0,1-1.52,5.26,5.26,0,0,0,.35-1.93,3.92,3.92,0,0,0-1.39-3.22,6.61,6.61,0,0,0-4.22-1.13h-3.29Z"/><path class="cls-3" d="M213.84,243.14a15,15,0,0,1-1,5.57,12.9,12.9,0,0,1-2.84,4.37,12.64,12.64,0,0,1-4.41,2.84,15.39,15.39,0,0,1-5.71,1H189.34V229.34h10.53a15.39,15.39,0,0,1,5.71,1,12.81,12.81,0,0,1,4.41,2.85,12.67,12.67,0,0,1,2.84,4.36A15,15,0,0,1,213.84,243.14Zm-5.25,0a12.63,12.63,0,0,0-.61-4.08,8.59,8.59,0,0,0-1.73-3.05,7.63,7.63,0,0,0-2.74-1.92,9.56,9.56,0,0,0-3.64-.66h-5.36v19.42h5.36a9.37,9.37,0,0,0,3.64-.67,7.39,7.39,0,0,0,2.74-1.92,8.5,8.5,0,0,0,1.73-3A12.57,12.57,0,0,0,208.59,243.14Z"/><path class="cls-3" d="M258,256.93h-4a1.78,1.78,0,0,1-1.1-.33,2,2,0,0,1-.62-.83l-2.06-5.63H238.83l-2.06,5.63a1.78,1.78,0,0,1-.6.8,1.68,1.68,0,0,1-1.09.36h-4l10.84-27.59h5.24Zm-17.86-10.41H249l-3.36-9.18q-.22-.61-.51-1.44c-.18-.56-.36-1.16-.54-1.81-.18.65-.35,1.26-.52,1.82s-.35,1.05-.51,1.47Z"/><path class="cls-3" d="M283.5,256.93h-5.15V229.34h5.15Z"/><path class="cls-3" d="M311.7,252.7h11.05v4.23H306.57V229.34h5.13Z"/><path class="cls-3" d="M351.1,246.21v10.72H346V246.21l-10.06-16.87h4.52a1.58,1.58,0,0,1,1.06.33,2.71,2.71,0,0,1,.66.82l5.06,9.21c.29.55.54,1.07.76,1.56s.41,1,.59,1.44c.17-.48.35-1,.56-1.46a16.77,16.77,0,0,1,.76-1.54l5-9.21a2.26,2.26,0,0,1,.63-.78,1.51,1.51,0,0,1,1.06-.37h4.54Z"/></g></g></svg>